{
    "asset" : {
        "generator" : "Khronos glTF Blender I/O v3.4.49",
        "version" : "2.0"
    },
    "scene" : 0,
    "scenes" : [
        {
            "name" : "Scene",
            "nodes" : [
                0,
                1,
                2
            ]
        }
    ],
    "nodes" : [
        {
            "mesh" : 0,
            "name" : "Donut",
            "translation" : [
                0,
                0.0228422861546278,
                0
            ]
        },
        {
            "mesh" : 1,
            "name" : "Icing",
            "translation" : [
                0,
                0.0228422861546278,
                0
            ]
        },
        {
            "mesh" : 2,
            "name" : "Plane"
        }
    ],
    "materials" : [
        {
            "doubleSided" : true,
            "name" : "Material.002",
            "pbrMetallicRoughness" : {
                "baseColorFactor" : [
                    0.8000000715255737,
                    0.4613722264766693,
                    0.14233280718326569,
                    1
                ],
                "metallicFactor" : 0,
                "roughnessFactor" : 0.5
            }
        },
        {
            "doubleSided" : true,
            "name" : "Material.001",
            "pbrMetallicRoughness" : {
                "baseColorFactor" : [
                    0.8000000715255737,
                    0.339622437953949,
                    0.7420269846916199,
                    1
                ],
                "metallicFactor" : 0,
                "roughnessFactor" : 0.16929133236408234
            }
        },
        {
            "doubleSided" : true,
            "name" : "Material.003",
            "pbrMetallicRoughness" : {
                "baseColorFactor" : [
                    0.7091082334518433,
                    0.475127637386322,
                    0.8000000715255737,
                    1
                ],
                "metallicFactor" : 0,
                "roughnessFactor" : 0.5
            }
        }
    ],
    "meshes" : [
        {
            "name" : "Torus",
            "primitives" : [
                {
                    "attributes" : {
                        "POSITION" : 0,
                        "TEXCOORD_0" : 1,
                        "NORMAL" : 2
                    },
                    "indices" : 3,
                    "material" : 0
                }
            ]
        },
        {
            "name" : "Torus.001",
            "primitives" : [
                {
                    "attributes" : {
                        "POSITION" : 4,
                        "TEXCOORD_0" : 5,
                        "NORMAL" : 6
                    },
                    "indices" : 7,
                    "material" : 1
                }
            ]
        },
        {
            "name" : "Plane",
            "primitives" : [
                {
                    "attributes" : {
                        "POSITION" : 8,
                        "TEXCOORD_0" : 9,
                        "NORMAL" : 10
                    },
                    "indices" : 11,
                    "material" : 2
                }
            ]
        }
    ],
    "accessors" : [
        {
            "bufferView" : 0,
            "componentType" : 5126,
            "count" : 10465,
            "max" : [
                0.05002567172050476,
                0.021007128059864044,
                0.04948887228965759
            ],
            "min" : [
                -0.05058252438902855,
                -0.024642450734972954,
                -0.050771258771419525
            ],
            "type" : "VEC3"
        },
        {
            "bufferView" : 1,
            "componentType" : 5126,
            "count" : 10465,
            "type" : "VEC2"
        },
        {
            "bufferView" : 2,
            "componentType" : 5126,
            "count" : 10465,
            "type" : "VEC3"
        },
        {
            "bufferView" : 3,
            "componentType" : 5123,
            "count" : 61440,
            "type" : "SCALAR"
        },
        {
            "bufferView" : 4,
            "componentType" : 5126,
            "count" : 44296,
            "max" : [
                0.05247656628489494,
                0.023728279396891594,
                0.05199124664068222
            ],
            "min" : [
                -0.05195963755249977,
                -0.011810353957116604,
                -0.05234384164214134
            ],
            "type" : "VEC3"
        },
        {
            "bufferView" : 5,
            "componentType" : 5126,
            "count" : 44296,
            "type" : "VEC2"
        },
        {
            "bufferView" : 6,
            "componentType" : 5126,
            "count" : 44296,
            "type" : "VEC3"
        },
        {
            "bufferView" : 7,
            "componentType" : 5123,
            "count" : 264960,
            "type" : "SCALAR"
        },
        {
            "bufferView" : 8,
            "componentType" : 5126,
            "count" : 4,
            "max" : [
                1,
                0,
                1
            ],
            "min" : [
                -1,
                0,
                -1
            ],
            "type" : "VEC3"
        },
        {
            "bufferView" : 9,
            "componentType" : 5126,
            "count" : 4,
            "type" : "VEC2"
        },
        {
            "bufferView" : 10,
            "componentType" : 5126,
            "count" : 4,
            "type" : "VEC3"
        },
        {
            "bufferView" : 11,
            "componentType" : 5123,
            "count" : 6,
            "type" : "SCALAR"
        }
    ],
    "bufferViews" : [
        {
            "buffer" : 0,
            "byteLength" : 125580,
            "byteOffset" : 0,
            "target" : 34962
        },
        {
            "buffer" : 0,
            "byteLength" : 83720,
            "byteOffset" : 125580,
            "target" : 34962
        },
        {
            "buffer" : 0,
            "byteLength" : 125580,
            "byteOffset" : 209300,
            "target" : 34962
        },
        {
            "buffer" : 0,
            "byteLength" : 122880,
            "byteOffset" : 334880,
            "target" : 34963
        },
        {
            "buffer" : 0,
            "byteLength" : 531552,
            "byteOffset" : 457760,
            "target" : 34962
        },
        {
            "buffer" : 0,
            "byteLength" : 354368,
            "byteOffset" : 989312,
            "target" : 34962
        },
        {
            "buffer" : 0,
            "byteLength" : 531552,
            "byteOffset" : 1343680,
            "target" : 34962
        },
        {
            "buffer" : 0,
            "byteLength" : 529920,
            "byteOffset" : 1875232,
            "target" : 34963
        },
        {
            "buffer" : 0,
            "byteLength" : 48,
            "byteOffset" : 2405152,
            "target" : 34962
        },
        {
            "buffer" : 0,
            "byteLength" : 32,
            "byteOffset" : 2405200,
            "target" : 34962
        },
        {
            "buffer" : 0,
            "byteLength" : 48,
            "byteOffset" : 2405232,
            "target" : 34962
        },
        {
            "buffer" : 0,
            "byteLength" : 12,
            "byteOffset" : 2405280,
            "target" : 34963
        }
    ],
    "buffers" : [
        {
            "byteLength" : 2405292,
            "uri" : "data:application/octet-stream;base64,"
        }
    ]
}
